<mxfile host="app.diagrams.net" modified="2022-02-13T19:24:21.350Z" agent="5.0 (X11)" etag="2ME4oxtsc6LA2y3p3LCt" version="16.5.6" type="github">
  <diagram id="Y-p9t_ANSuZBD7Eh2mmh" name="Page-1">
    <mxGraphModel dx="2099" dy="725" grid="1" gridSize="10" guides="1" tooltips="1" connect="1" arrows="1" fold="1" page="1" pageScale="1" pageWidth="850" pageHeight="1100" math="0" shadow="0">
      <root>
        <mxCell id="0" />
        <mxCell id="1" parent="0" />
        <mxCell id="KGSLZ8ys8CblLNxTx29r-41" value="" style="rounded=0;whiteSpace=wrap;html=1;labelBackgroundColor=#00CCCC;fontColor=#3333FF;" vertex="1" parent="1">
          <mxGeometry x="-290" y="200" width="1140" height="500" as="geometry" />
        </mxCell>
        <mxCell id="KGSLZ8ys8CblLNxTx29r-16" style="edgeStyle=orthogonalEdgeStyle;rounded=0;orthogonalLoop=1;jettySize=auto;html=1;fontColor=#FFFFFF;" edge="1" parent="1" source="KGSLZ8ys8CblLNxTx29r-1" target="KGSLZ8ys8CblLNxTx29r-15">
          <mxGeometry relative="1" as="geometry" />
        </mxCell>
        <mxCell id="KGSLZ8ys8CblLNxTx29r-1" value="" style="sketch=0;html=1;dashed=0;whitespace=wrap;fillColor=#2875E2;strokeColor=#ffffff;points=[[0.005,0.63,0],[0.1,0.2,0],[0.9,0.2,0],[0.5,0,0],[0.995,0.63,0],[0.72,0.99,0],[0.5,1,0],[0.28,0.99,0]];shape=mxgraph.kubernetes.icon;prIcon=user" vertex="1" parent="1">
          <mxGeometry x="-270" y="446.75" width="50" height="48" as="geometry" />
        </mxCell>
        <mxCell id="KGSLZ8ys8CblLNxTx29r-2" value="" style="rounded=0;whiteSpace=wrap;html=1;" vertex="1" parent="1">
          <mxGeometry x="60" y="270" width="640" height="380" as="geometry" />
        </mxCell>
        <mxCell id="KGSLZ8ys8CblLNxTx29r-3" value="&lt;font color=&quot;#FFFFFF&quot;&gt;Main App&lt;br&gt;&lt;/font&gt;" style="rounded=1;whiteSpace=wrap;html=1;" vertex="1" parent="1">
          <mxGeometry x="150" y="441.5" width="120" height="60" as="geometry" />
        </mxCell>
        <mxCell id="KGSLZ8ys8CblLNxTx29r-4" value="" style="sketch=0;aspect=fixed;html=1;points=[];align=center;image;fontSize=12;image=img/lib/mscae/Docker.svg;" vertex="1" parent="1">
          <mxGeometry x="83" y="597" width="50" height="41" as="geometry" />
        </mxCell>
        <mxCell id="KGSLZ8ys8CblLNxTx29r-5" value="" style="sketch=0;aspect=fixed;html=1;points=[];align=center;image;fontSize=12;image=img/lib/mscae/Kubernetes.svg;" vertex="1" parent="1">
          <mxGeometry x="630" y="590" width="50" height="48" as="geometry" />
        </mxCell>
        <mxCell id="KGSLZ8ys8CblLNxTx29r-6" value="" style="fillColor=#28A8E0;verticalLabelPosition=bottom;sketch=0;html=1;strokeColor=#ffffff;verticalAlign=top;align=center;points=[[0.145,0.145,0],[0.5,0,0],[0.855,0.145,0],[1,0.5,0],[0.855,0.855,0],[0.5,1,0],[0.145,0.855,0],[0,0.5,0]];pointerEvents=1;shape=mxgraph.cisco_safe.compositeIcon;bgIcon=ellipse;resIcon=mxgraph.cisco_safe.capability.load_balancer;" vertex="1" parent="1">
          <mxGeometry x="40" y="450" width="43" height="43" as="geometry" />
        </mxCell>
        <mxCell id="KGSLZ8ys8CblLNxTx29r-9" value="" style="endArrow=classic;startArrow=classic;html=1;rounded=0;exitX=0.767;exitY=0.5;exitDx=0;exitDy=0;exitPerimeter=0;entryX=0;entryY=0.5;entryDx=0;entryDy=0;" edge="1" parent="1" source="KGSLZ8ys8CblLNxTx29r-6" target="KGSLZ8ys8CblLNxTx29r-3">
          <mxGeometry width="50" height="50" relative="1" as="geometry">
            <mxPoint x="310" y="400" as="sourcePoint" />
            <mxPoint x="360" y="350" as="targetPoint" />
            <Array as="points" />
          </mxGeometry>
        </mxCell>
        <mxCell id="KGSLZ8ys8CblLNxTx29r-10" value="" style="sketch=0;html=1;dashed=0;whitespace=wrap;fillColor=#2875E2;strokeColor=#ffffff;points=[[0.005,0.63,0],[0.1,0.2,0],[0.9,0.2,0],[0.5,0,0],[0.995,0.63,0],[0.72,0.99,0],[0.5,1,0],[0.28,0.99,0]];shape=mxgraph.kubernetes.icon;prIcon=pod" vertex="1" parent="1">
          <mxGeometry x="140" y="420" width="30" height="38" as="geometry" />
        </mxCell>
        <mxCell id="KGSLZ8ys8CblLNxTx29r-11" value="&amp;lt;/&amp;gt;" style="rounded=1;arcSize=5;fillColor=#0065FF;strokeColor=none;fontColor=#ffffff;align=center;verticalAlign=middle;whiteSpace=wrap;fontSize=14;fontStyle=1;html=1;sketch=0;" vertex="1" parent="1">
          <mxGeometry x="170" y="450" width="80" height="41.5" as="geometry" />
        </mxCell>
        <mxCell id="KGSLZ8ys8CblLNxTx29r-12" value="&lt;div&gt;Crawler&lt;/div&gt;&lt;div&gt;Manager&lt;br&gt;&lt;/div&gt;" style="rounded=1;whiteSpace=wrap;html=1;" vertex="1" parent="1">
          <mxGeometry x="330" y="441.5" width="120" height="60" as="geometry" />
        </mxCell>
        <mxCell id="KGSLZ8ys8CblLNxTx29r-13" value="" style="sketch=0;html=1;dashed=0;whitespace=wrap;fillColor=#2875E2;strokeColor=#ffffff;points=[[0.005,0.63,0],[0.1,0.2,0],[0.9,0.2,0],[0.5,0,0],[0.995,0.63,0],[0.72,0.99,0],[0.5,1,0],[0.28,0.99,0]];shape=mxgraph.kubernetes.icon;prIcon=pod" vertex="1" parent="1">
          <mxGeometry x="320" y="430" width="30" height="38" as="geometry" />
        </mxCell>
        <mxCell id="KGSLZ8ys8CblLNxTx29r-17" style="edgeStyle=orthogonalEdgeStyle;rounded=0;orthogonalLoop=1;jettySize=auto;html=1;exitX=0.95;exitY=0.5;exitDx=0;exitDy=0;exitPerimeter=0;fontColor=#FFFFFF;" edge="1" parent="1" source="KGSLZ8ys8CblLNxTx29r-15">
          <mxGeometry relative="1" as="geometry">
            <mxPoint x="40" y="471" as="targetPoint" />
          </mxGeometry>
        </mxCell>
        <mxCell id="KGSLZ8ys8CblLNxTx29r-15" value="" style="outlineConnect=0;dashed=0;verticalLabelPosition=bottom;verticalAlign=top;align=center;html=1;shape=mxgraph.aws3.virtual_private_cloud;fillColor=#F58534;gradientColor=none;fontColor=#FFFFFF;" vertex="1" parent="1">
          <mxGeometry x="-130" y="444" width="79.5" height="54" as="geometry" />
        </mxCell>
        <mxCell id="KGSLZ8ys8CblLNxTx29r-18" value="&lt;div align=&quot;center&quot;&gt;&lt;font color=&quot;#006600&quot;&gt;Crawler&lt;/font&gt;&lt;/div&gt;&lt;div align=&quot;center&quot;&gt;&lt;font color=&quot;#006600&quot;&gt;Worker&lt;br&gt;&lt;/font&gt;&lt;/div&gt;" style="rounded=1;whiteSpace=wrap;html=1;fontColor=#FFFFFF;align=center;" vertex="1" parent="1">
          <mxGeometry x="500" y="330" width="120" height="60" as="geometry" />
        </mxCell>
        <mxCell id="KGSLZ8ys8CblLNxTx29r-19" value="" style="sketch=0;html=1;dashed=0;whitespace=wrap;fillColor=#2875E2;strokeColor=#ffffff;points=[[0.005,0.63,0],[0.1,0.2,0],[0.9,0.2,0],[0.5,0,0],[0.995,0.63,0],[0.72,0.99,0],[0.5,1,0],[0.28,0.99,0]];shape=mxgraph.kubernetes.icon;prIcon=pod" vertex="1" parent="1">
          <mxGeometry x="490" y="320" width="30" height="38" as="geometry" />
        </mxCell>
        <mxCell id="KGSLZ8ys8CblLNxTx29r-20" value="" style="endArrow=classic;startArrow=classic;html=1;rounded=0;fontColor=#006600;exitX=1;exitY=0.5;exitDx=0;exitDy=0;entryX=0;entryY=0.5;entryDx=0;entryDy=0;" edge="1" parent="1" source="KGSLZ8ys8CblLNxTx29r-3" target="KGSLZ8ys8CblLNxTx29r-12">
          <mxGeometry width="50" height="50" relative="1" as="geometry">
            <mxPoint x="290" y="400" as="sourcePoint" />
            <mxPoint x="340" y="350" as="targetPoint" />
          </mxGeometry>
        </mxCell>
        <mxCell id="KGSLZ8ys8CblLNxTx29r-21" value="&lt;div align=&quot;center&quot;&gt;&lt;font color=&quot;#006600&quot;&gt;Crawler&lt;/font&gt;&lt;/div&gt;&lt;div align=&quot;center&quot;&gt;&lt;font color=&quot;#006600&quot;&gt;Worker&lt;br&gt;&lt;/font&gt;&lt;/div&gt;" style="rounded=1;whiteSpace=wrap;html=1;fontColor=#FFFFFF;align=center;" vertex="1" parent="1">
          <mxGeometry x="500" y="441.5" width="120" height="60" as="geometry" />
        </mxCell>
        <mxCell id="KGSLZ8ys8CblLNxTx29r-22" value="" style="sketch=0;html=1;dashed=0;whitespace=wrap;fillColor=#2875E2;strokeColor=#ffffff;points=[[0.005,0.63,0],[0.1,0.2,0],[0.9,0.2,0],[0.5,0,0],[0.995,0.63,0],[0.72,0.99,0],[0.5,1,0],[0.28,0.99,0]];shape=mxgraph.kubernetes.icon;prIcon=pod" vertex="1" parent="1">
          <mxGeometry x="490" y="431.5" width="30" height="38" as="geometry" />
        </mxCell>
        <mxCell id="KGSLZ8ys8CblLNxTx29r-23" value="&lt;div align=&quot;center&quot;&gt;&lt;font color=&quot;#006600&quot;&gt;Crawler&lt;/font&gt;&lt;/div&gt;&lt;div align=&quot;center&quot;&gt;&lt;font color=&quot;#006600&quot;&gt;Worker&lt;br&gt;&lt;/font&gt;&lt;/div&gt;" style="rounded=1;whiteSpace=wrap;html=1;fontColor=#FFFFFF;align=center;" vertex="1" parent="1">
          <mxGeometry x="500" y="550" width="120" height="60" as="geometry" />
        </mxCell>
        <mxCell id="KGSLZ8ys8CblLNxTx29r-24" value="" style="sketch=0;html=1;dashed=0;whitespace=wrap;fillColor=#2875E2;strokeColor=#ffffff;points=[[0.005,0.63,0],[0.1,0.2,0],[0.9,0.2,0],[0.5,0,0],[0.995,0.63,0],[0.72,0.99,0],[0.5,1,0],[0.28,0.99,0]];shape=mxgraph.kubernetes.icon;prIcon=pod" vertex="1" parent="1">
          <mxGeometry x="490" y="540" width="30" height="38" as="geometry" />
        </mxCell>
        <mxCell id="KGSLZ8ys8CblLNxTx29r-25" value="" style="endArrow=classic;startArrow=classic;html=1;rounded=0;fontColor=#006600;exitX=1;exitY=1;exitDx=0;exitDy=0;entryX=0.1;entryY=0.2;entryDx=0;entryDy=0;entryPerimeter=0;" edge="1" parent="1" source="KGSLZ8ys8CblLNxTx29r-12" target="KGSLZ8ys8CblLNxTx29r-24">
          <mxGeometry width="50" height="50" relative="1" as="geometry">
            <mxPoint x="290" y="400" as="sourcePoint" />
            <mxPoint x="340" y="350" as="targetPoint" />
          </mxGeometry>
        </mxCell>
        <mxCell id="KGSLZ8ys8CblLNxTx29r-28" value="" style="endArrow=classic;startArrow=classic;html=1;rounded=0;fontColor=#006600;entryX=0;entryY=0.5;entryDx=0;entryDy=0;exitX=1;exitY=0.5;exitDx=0;exitDy=0;" edge="1" parent="1" source="KGSLZ8ys8CblLNxTx29r-12" target="KGSLZ8ys8CblLNxTx29r-21">
          <mxGeometry width="50" height="50" relative="1" as="geometry">
            <mxPoint x="290" y="400" as="sourcePoint" />
            <mxPoint x="340" y="350" as="targetPoint" />
          </mxGeometry>
        </mxCell>
        <mxCell id="KGSLZ8ys8CblLNxTx29r-29" value="" style="endArrow=classic;startArrow=classic;html=1;rounded=0;fontColor=#006600;exitX=0;exitY=1;exitDx=0;exitDy=0;entryX=1;entryY=0;entryDx=0;entryDy=0;" edge="1" parent="1" source="KGSLZ8ys8CblLNxTx29r-18" target="KGSLZ8ys8CblLNxTx29r-12">
          <mxGeometry width="50" height="50" relative="1" as="geometry">
            <mxPoint x="290" y="400" as="sourcePoint" />
            <mxPoint x="340" y="350" as="targetPoint" />
          </mxGeometry>
        </mxCell>
        <mxCell id="KGSLZ8ys8CblLNxTx29r-30" value="&lt;div&gt;&lt;font color=&quot;#3333FF&quot;&gt;Managed K8s&lt;/font&gt;&lt;/div&gt;&lt;div&gt;&lt;font color=&quot;#3333FF&quot;&gt;Cluster&lt;br&gt;&lt;/font&gt;&lt;/div&gt;" style="text;html=1;strokeColor=none;fillColor=none;align=center;verticalAlign=middle;whiteSpace=wrap;rounded=0;fontColor=#006600;" vertex="1" parent="1">
          <mxGeometry x="90" y="300" width="60" height="30" as="geometry" />
        </mxCell>
        <mxCell id="KGSLZ8ys8CblLNxTx29r-31" value="" style="outlineConnect=0;dashed=0;verticalLabelPosition=bottom;verticalAlign=top;align=center;html=1;shape=mxgraph.aws3.bucket_with_objects;fillColor=#E05243;gradientColor=none;labelBackgroundColor=#00CCCC;fontColor=#3333FF;" vertex="1" parent="1">
          <mxGeometry x="750" y="434" width="60" height="61.5" as="geometry" />
        </mxCell>
        <mxCell id="KGSLZ8ys8CblLNxTx29r-32" value="" style="endArrow=classic;html=1;rounded=0;fontColor=#3333FF;entryX=0;entryY=0.12;entryDx=0;entryDy=0;entryPerimeter=0;exitX=1;exitY=1;exitDx=0;exitDy=0;" edge="1" parent="1" source="KGSLZ8ys8CblLNxTx29r-18" target="KGSLZ8ys8CblLNxTx29r-31">
          <mxGeometry relative="1" as="geometry">
            <mxPoint x="260" y="370" as="sourcePoint" />
            <mxPoint x="360" y="370" as="targetPoint" />
          </mxGeometry>
        </mxCell>
        <mxCell id="KGSLZ8ys8CblLNxTx29r-33" value="" style="shape=message;html=1;outlineConnect=0;labelBackgroundColor=#00CCCC;fontColor=#3333FF;" vertex="1" parent="KGSLZ8ys8CblLNxTx29r-32">
          <mxGeometry width="20" height="14" relative="1" as="geometry">
            <mxPoint x="-10" y="-7" as="offset" />
          </mxGeometry>
        </mxCell>
        <mxCell id="KGSLZ8ys8CblLNxTx29r-35" value="" style="endArrow=classic;html=1;rounded=0;fontColor=#3333FF;entryX=0.06;entryY=0.5;entryDx=0;entryDy=0;entryPerimeter=0;exitX=1;exitY=0.5;exitDx=0;exitDy=0;" edge="1" parent="1" source="KGSLZ8ys8CblLNxTx29r-21" target="KGSLZ8ys8CblLNxTx29r-31">
          <mxGeometry relative="1" as="geometry">
            <mxPoint x="630" y="400" as="sourcePoint" />
            <mxPoint x="760" y="451.3800000000001" as="targetPoint" />
          </mxGeometry>
        </mxCell>
        <mxCell id="KGSLZ8ys8CblLNxTx29r-36" value="" style="shape=message;html=1;outlineConnect=0;labelBackgroundColor=#00CCCC;fontColor=#3333FF;" vertex="1" parent="KGSLZ8ys8CblLNxTx29r-35">
          <mxGeometry width="20" height="14" relative="1" as="geometry">
            <mxPoint x="-10" y="-7" as="offset" />
          </mxGeometry>
        </mxCell>
        <mxCell id="KGSLZ8ys8CblLNxTx29r-37" value="" style="endArrow=classic;html=1;rounded=0;fontColor=#3333FF;entryX=0.17;entryY=0.93;entryDx=0;entryDy=0;entryPerimeter=0;exitX=1;exitY=0.5;exitDx=0;exitDy=0;" edge="1" parent="1" source="KGSLZ8ys8CblLNxTx29r-23" target="KGSLZ8ys8CblLNxTx29r-31">
          <mxGeometry relative="1" as="geometry">
            <mxPoint x="640" y="410" as="sourcePoint" />
            <mxPoint x="770" y="461.3800000000001" as="targetPoint" />
          </mxGeometry>
        </mxCell>
        <mxCell id="KGSLZ8ys8CblLNxTx29r-38" value="" style="shape=message;html=1;outlineConnect=0;labelBackgroundColor=#00CCCC;fontColor=#3333FF;" vertex="1" parent="KGSLZ8ys8CblLNxTx29r-37">
          <mxGeometry width="20" height="14" relative="1" as="geometry">
            <mxPoint x="-10" y="-7" as="offset" />
          </mxGeometry>
        </mxCell>
      </root>
    </mxGraphModel>
  </diagram>
</mxfile>
